<svg width="17" height="16" viewBox="0 0 17 16" fill="none" xmlns="http://www.w3.org/2000/svg">
<g clip-path="url(#clip0)">
<path d="M16.5392 6.09701C16.5221 6.0443 16.4905 5.99744 16.4481 5.96174C16.4057 5.92604 16.3541 5.90293 16.2992 5.89501L10.9392 5.11601L8.54223 0.260011C8.5177 0.210713 8.4799 0.169235 8.43308 0.140241C8.38627 0.111247 8.3323 0.0958862 8.27723 0.0958862C8.22216 0.0958862 8.16819 0.111247 8.12138 0.140241C8.07456 0.169235 8.03676 0.210713 8.01223 0.260011L5.61323 5.11701L0.253229 5.89601C0.198678 5.90414 0.147468 5.9273 0.105337 5.96289C0.063205 5.99848 0.0318162 6.0451 0.014687 6.09753C-0.00244215 6.14995 -0.00463505 6.20611 0.00835402 6.25971C0.0213431 6.31332 0.049001 6.36224 0.088229 6.40101L3.96823 10.181L3.05123 15.521C3.04223 15.5754 3.04855 15.6313 3.0695 15.6823C3.09045 15.7333 3.12519 15.7775 3.16983 15.8099C3.21446 15.8423 3.26724 15.8616 3.32224 15.8657C3.37724 15.8698 3.43229 15.8584 3.48123 15.833L8.27623 13.313L13.0702 15.833C13.1192 15.8589 13.1745 15.8706 13.2298 15.8667C13.2851 15.8627 13.3381 15.8433 13.3829 15.8107C13.4277 15.7781 13.4625 15.7336 13.4832 15.6822C13.504 15.6308 13.5099 15.5746 13.5002 15.52L12.5842 10.182L16.4642 6.40001C16.5442 6.32001 16.5742 6.20301 16.5392 6.09601V6.09701Z" fill="#7D8CAA"/>
</g>
<defs>
<clipPath id="clip0">
<rect width="17" height="16" fill="white"/>
</clipPath>
</defs>
</svg>
